HIERARCHY
ROOT Hips
{
	OFFSET 0.000000 0.000000 0.000000
	CHANNELS 6 Xposition Yposition Zposition Zrotation Yrotation Xrotation 
	JOINT LHipJoint
	{
		OFFSET 0.000000 0.000000 0.000000
		CHANNELS 3 Zrotation Yrotation Xrotation
		JOINT LeftUpLeg
		{
			OFFSET 1.363060 -1.794630 0.839290
			CHANNELS 3 Zrotation Yrotation Xrotation
			JOINT LeftLeg
			{
				OFFSET 2.448110 -6.726130 0.000000
				CHANNELS 3 Zrotation Yrotation Xrotation
				JOINT LeftFoot
				{
					OFFSET 2.562200 -7.039590 0.000000
					CHANNELS 3 Zrotation Yrotation Xrotation
					JOINT LeftToeBase
					{
						OFFSET 0.157640 -0.433110 2.322550
						CHANNELS 3 Zrotation Yrotation Xrotation
						End Site
						{
							OFFSET 0.000000 0.000000 0.000000
						}
					}
				}
			}
		}
	}
	JOINT RHipJoint
	{
		OFFSET 0.000000 0.000000 0.000000
		CHANNELS 3 Zrotation Yrotation Xrotation
		JOINT RightUpLeg
		{
			OFFSET -1.305520 -1.794630 0.839290
			CHANNELS 3 Zrotation Yrotation Xrotation
			JOINT RightLeg
			{
				OFFSET -2.542530 -6.985550 0.000000
				CHANNELS 3 Zrotation Yrotation Xrotation
				JOINT RightFoot
				{
					OFFSET -2.568260 -7.056230 0.000000
					CHANNELS 3 Zrotation Yrotation Xrotation
					JOINT RightToeBase
					{
						OFFSET -0.164730 -0.452590 2.363150
						CHANNELS 3 Zrotation Yrotation Xrotation
						End Site
						{
							OFFSET 0.000000 0.000000 0.000000
						}
					}
				}
			}
		}
	}
}
MOTION
Frames: 19
Frame Time: 0.008333
2.863587 16.613762 0.784303 18.719925 -60.353943 14.415242 -8.852136 -0.925839 3.540914 -15.646235 -12.221652 -52.454825 -2.374186 0.744563 31.076777 1.182429 5.325233 -4.868164 0.690200 -0.000001 -43.815900 8.816571 0.580117 -4.574911 13.009354 -35.137184 -57.843608 5.034405 -5.369691 38.540748 -1.699865 -5.490552 -10.519604 -0.069000 0.000001 -68.327200
2.866772 16.612152 0.779680 18.517888 -59.845644 14.706656 -8.832015 -0.918022 3.592443 -15.631252 -12.368814 -52.546143 -2.401737 0.744304 30.959380 1.107907 4.961875 -4.698999 0.678900 0.000000 -43.928201 8.804020 0.561242 -4.618936 13.244781 -35.433444 -58.012791 5.062465 -5.394949 38.576805 -1.718366 -5.576568 -10.590057 -0.059999 0.000000 -68.206600
2.872075 16.610724 0.776016 18.283427 -59.377356 15.028472 -8.817476 -0.919228 3.631527 -15.575841 -12.512566 -52.647864 -2.420504 0.745001 30.864486 1.042829 4.641195 -4.549682 0.667200 0.000000 -44.035200 8.785003 0.544331 -4.675209 13.486480 -35.687173 -58.157666 5.087790 -5.417350 38.605913 -1.738166 -5.673425 -10.645918 -0.052700 0.000000 -68.097200
2.879546 16.609814 0.773558 18.014191 -58.955384 15.381753 -8.809218 -0.928652 3.659512 -15.475317 -12.655589 -52.758777 -2.429641 0.746286 30.786684 0.988293 4.369817 -4.418628 0.656400 0.000000 -44.135200 8.758533 0.530641 -4.744156 13.732875 -35.894475 -58.272253 5.109981 -5.434972 38.621203 -1.759672 -5.783970 -10.682644 -0.047800 -0.000000 -68.001201
2.888899 16.609917 0.772299 17.725566 -58.582505 15.761914 -8.812094 -0.950962 3.670179 -15.328919 -12.796514 -52.874072 -2.429041 0.747713 30.714012 0.944663 4.152272 -4.298852 0.648100 0.000000 -44.228501 8.719795 0.522540 -4.830627 13.977627 -36.050488 -58.348790 5.129510 -5.447087 38.610410 -1.783458 -5.912499 -10.693372 -0.046401 -0.000000 -67.921900
2.900429 16.610255 0.772411 17.409462 -58.253112 16.171215 -8.821102 -0.982320 3.672283 -15.139947 -12.942916 -53.005796 -2.418589 0.749156 30.661643 0.911885 3.986454 -4.198887 0.641801 0.000000 -44.309900 8.674230 0.515476 -4.925920 14.225343 -36.156800 -58.405586 5.146015 -5.455618 38.589556 -1.809577 -6.056007 -10.688229 -0.047400 0.000000 -67.850700
2.913749 16.610457 0.773697 17.072796 -57.969586 16.604904 -8.832978 -1.018724 3.670282 -14.916881 -13.093345 -53.159989 -2.399903 0.750791 30.632130 0.889145 3.868155 -4.119537 0.637600 -0.000000 -44.377000 8.625673 0.508486 -5.023135 14.475369 -36.210116 -58.455572 5.158928 -5.461130 38.566624 -1.838209 -6.212644 -10.673298 -0.050300 0.000000 -67.780801
2.928634 16.610018 0.776013 16.722410 -57.728868 17.058577 -8.845330 -1.058618 3.666706 -14.668682 -13.247082 -53.343729 -2.374471 0.752852 30.630836 0.875325 3.791318 -4.062697 0.635199 0.000000 -44.428600 8.576888 0.499991 -5.117090 14.727440 -36.211474 -58.513706 5.168373 -5.465695 38.552076 -1.869070 -6.378349 -10.655967 -0.054200 -0.000000 -67.706300
2.944602 16.608719 0.779119 16.367364 -57.531432 17.526515 -8.856579 -1.099912 3.663454 -14.406136 -13.399833 -53.560633 -2.344496 0.755533 30.656686 0.868930 3.748311 -4.027354 0.634200 -0.000000 -44.465801 8.529766 0.489279 -5.202669 14.981595 -36.161299 -58.593235 5.174638 -5.470497 38.551419 -1.901593 -6.548146 -10.640958 -0.058500 0.000000 -67.623800
2.961118 16.606362 0.782741 16.016469 -57.376258 18.001860 -8.865153 -1.140569 3.662135 -14.140746 -13.545775 -53.812987 -2.312386 0.759089 30.708129 0.868227 3.730254 -4.011889 0.634200 0.000000 -44.490400 8.486325 0.475631 -5.274916 15.237401 -36.061734 -58.705629 5.178116 -5.476798 38.570030 -1.934943 -6.715904 -10.632962 -0.062600 0.000000 -67.530900
2.977483 16.602650 0.786573 15.676048 -57.262143 18.477899 -8.867767 -1.176504 3.667498 -13.884584 -13.679192 -54.102604 -2.280778 0.763664 30.784719 0.871311 3.727163 -4.015365 0.634599 0.000000 -44.504800 8.450671 0.457314 -5.325884 15.495834 -35.916020 -58.863494 5.179123 -5.485642 38.614435 -1.968139 -6.874385 -10.637368 -0.065800 -0.000000 -67.425500
2.993067 16.597737 0.790251 15.356272 -57.194862 18.946123 -8.864576 -1.205389 3.678774 -13.647676 -13.790329 -54.425403 -2.252261 0.770024 30.877453 0.876639 3.731304 -4.033308 0.635000 0.000000 -44.513100 8.422582 0.436956 -5.354283 15.754021 -35.726716 -59.068173 5.177857 -5.496631 38.682897 -1.999994 -7.017341 -10.654098 -0.067801 0.000000 -67.309900
3.007586 16.591809 0.793481 15.068861 -57.179830 19.401959 -8.858286 -1.228453 3.689508 -13.437656 -13.870975 -54.779345 -2.228655 0.779370 30.980017 0.883048 3.736651 -4.062249 0.634999 0.000000 -44.519000 8.398563 0.418913 -5.364992 16.008164 -35.495969 -59.320870 5.174808 -5.510272 38.774201 -2.029395 -7.139660 -10.682565 -0.068700 0.000000 -67.187300
3.020829 16.584723 0.796027 14.820979 -57.216367 19.845376 -8.849942 -1.246834 3.695685 -13.260333 -13.917504 -55.166507 -2.211320 0.792362 31.092838 0.889352 3.736643 -4.102256 0.633900 0.000000 -44.524099 8.377378 0.404374 -5.360905 16.257511 -35.227316 -59.626778 5.170795 -5.527945 38.891196 -2.055389 -7.236346 -10.725112 -0.067800 -0.000001 -67.058500
3.032727 16.576318 0.797725 14.613767 -57.301770 20.276792 -8.839405 -1.260980 3.695723 -13.119399 -13.928836 -55.588633 -2.201034 0.809367 31.219112 0.894611 3.726040 -4.154600 0.631100 -0.000000 -44.529300 8.359237 0.392972 -5.343093 16.502596 -34.924579 -59.990451 5.166399 -5.550890 39.037730 -2.077256 -7.303496 -10.784568 -0.064600 0.000001 -66.923500
3.043263 16.566477 0.798458 14.447570 -57.433310 20.696135 -8.826533 -1.271065 3.688457 -13.016831 -13.904324 -56.045069 -2.198213 0.830627 31.361437 0.898262 3.701906 -4.220186 0.626000 0.000000 -44.535100 8.344596 0.384320 -5.312709 16.742950 -34.591132 -60.411657 5.162011 -5.579638 39.215149 -2.094506 -7.338770 -10.862554 -0.058600 0.000000 -66.783100
3.052441 16.555196 0.798109 14.320624 -57.609115 21.102831 -8.811228 -1.277113 3.673657 -12.952282 -13.844883 -56.533390 -2.202808 0.856177 31.521118 0.900125 3.663586 -4.299347 0.618601 -0.000000 -44.541900 8.333916 0.377965 -5.270719 16.977406 -34.229863 -60.886451 5.157725 -5.614071 39.422549 -2.107003 -7.342142 -10.958629 -0.049800 0.000000 -66.638800
3.060554 16.542628 0.796682 14.227666 -57.828044 21.497337 -8.794032 -1.279889 3.650220 -12.923160 -13.752031 -57.050113 -2.214194 0.886107 31.698983 0.900412 3.612507 -4.392205 0.609000 0.000000 -44.549500 8.326701 0.374101 -5.219449 17.204085 -33.842904 -61.407494 5.153491 -5.653649 39.656957 -2.114758 -7.314850 -11.071176 -0.038599 -0.000000 -66.492900
3.067711 16.528868 0.794241 14.165207 -58.088949 21.880658 -8.775630 -1.279955 3.617757 -12.925048 -13.628270 -57.591114 -2.231434 0.920364 31.895580 0.899703 3.552125 -4.498638 0.597500 0.000000 -44.557900 8.322534 0.372652 -5.160989 17.421318 -33.431428 -61.965392 5.149119 -5.697425 39.914115 -2.118114 -7.260076 -11.197055 -0.025300 0.000000 -66.347500
